<svg xmlns="http://www.w3.org/2000/svg" xmlns:xlink="http://www.w3.org/1999/xlink" viewBox="0,0,256,256" width="33px" height="33px"><g fill="#ffffff" fill-rule="nonzero" stroke="none" stroke-width="1" stroke-linecap="butt" stroke-linejoin="miter" stroke-miterlimit="10" stroke-dasharray="" stroke-dashoffset="0" font-family="none" font-weight="none" font-size="none" text-anchor="none" style="mix-blend-mode: normal"><g transform="scale(5.12,5.12)"><path d="M44.62,13.13c-0.23,-0.21 -0.52,-0.33 -0.83,-0.33c-0.02,0 -0.05,0.01 -0.08,0.01l-29.86,1.92c-0.63,0.04 -1.13,0.58 -1.13,1.21v28.75c0,0.34 0.14,0.65 0.38,0.88c0.25,0.23 0.57,0.35 0.91,0.33l29.86,-1.93c0.64,-0.04 1.13,-0.57 1.13,-1.21v-28.74c0,-0.34 -0.13,-0.66 -0.38,-0.89zM38.11,20.92c-0.6,0.19 -0.79,0.2 -0.79,0.2v17.24c-1.02,0.55 -1.86,0.81 -2.74,0.81c-1.07,0 -1.68,-0.24 -2.5,-1.5c-1.74,-2.69 -7.41,-11.81 -7.41,-11.81v11.45l2.23,0.47c0,0 -0.06,1.3 -2.01,1.45c-1.71,0.13 -5.44,0.32 -5.44,0.32c0,-0.47 0.1,-1.12 0.84,-1.31c0.35,-0.09 1.4,-0.37 1.4,-0.37v-15.45h-2.24c0,-1.03 0.3,-1.83 1.38,-1.91l5.79,-0.33l7.73,11.92v-10.61l-2.24,-0.19c0,-0.93 0.9,-1.5 1.67,-1.58l5.04,-0.28c0,0.65 -0.03,1.26 -0.71,1.48zM4.98,8.54l5.74,5.74v29.54l-5.12,-6.16c-0.41,-0.58 -0.62,-1.25 -0.62,-1.96zM42.72,10.91l-29.06,1.83c-0.99,0.07 -1.95,-0.3 -2.65,-0.99l-4.77,-4.78l27.19,-1.89c0.81,-0.07 1.62,0.17 2.28,0.66z"></path></g></g></svg>